/* XPM */
static char *result[] = {
/* columns rows colors chars-per-pixel */
"16 16 10 1 ",
"  c #21110D",
". c #342319",
"X c #242A3D",
"o c #503625",
"O c #755338",
"+ c #355F4D",
"@ c #414B66",
"# c #509B66",
"$ c #677598",
"% c #B6BEC8",
/* pixels */
"################",
"#            ###",
"#o$$oooooo$$o ##",
"#O%%OOOOOO%%O ##",
"#O%%OOOOOO%%O ##",
"#O%%OOOOOO%%O ##",
"#O%%OOOOOO%%O ##",
"#o$$oooooo$$o ##",
"#$$$$%%%%$$$$ ##",
"#.@@.@XX@.@@. ##",
"#.$$o$XX$o$$. +#",
"#.$$o$$$$o$$. +#",
"#.$$oooooo$$. +#",
"# $$oooooo$$ ++#",
"#+++++++++++++##",
"##++++++++++####"
};
